<svg xmlns="http://www.w3.org/2000/svg" viewBox="0 0 283 57"><path fill="none" d="M-.2.2h283.5v56.7H-.2z"/><path d="M176.2 31c5.9 0 9.9 4.8 9.9 10.5v1.3h-17.5c.6 3.7 3.8 6.5 7.9 6.5 2.3 0 4.8-1.2 6.3-3.4l2.2 1.5c-1.9 2.8-5.1 4.6-8.7 4.6-5.7 0-10.5-4.6-10.5-10.5S170.6 31 176.2 31zm97.1 0c5.9 0 9.9 4.8 9.9 10.5v1.3h-17.5c.6 3.7 3.8 6.5 7.9 6.5 2.3 0 4.8-1.2 6.3-3.4l2.2 1.5c-1.9 2.8-5.1 4.6-8.7 4.6-5.7 0-10.5-4.6-10.5-10.5S267.7 31 273.3 31zm0 2.6c-4.1 0-7.2 3.1-7.7 6.5h14.8c-.6-3.6-3.1-6.5-7.1-6.5zm-67-2.6c5.8 0 10.5 4.7 10.5 10.5v9.9h-2.6v-3c-1.9 2.2-4.7 3.5-7.8 3.5-5.8 0-10.5-4.7-10.5-10.5S200.5 31 206.3 31zm46.3 0c3.8 0 7.1 2 9 5.1l-2.3 1.3c-1.4-2.3-3.9-3.8-6.7-3.8-4.3 0-7.8 3.5-7.8 7.8s3.5 7.8 7.8 7.8c2.8 0 5.3-1.5 6.7-3.8l2.3 1.3c-1.8 3-5.2 5.1-9 5.1-5.8 0-10.5-4.7-10.5-10.5S246.8 31 252.6 31zm-22.3 0c4.5 0 8.6 3.8 8.6 8.2v12.2h-2.6v-12c0-2.1-1.9-5.7-5.9-5.7-2.9 0-5.9 2.3-5.9 5.9v11.8h-2.6V39.5c-.1-4.3 3.2-8.5 8.4-8.5zm-40.7 20.4V22.3h2.6v29.1h-2.6zm16.7-17.8c-4.3 0-7.8 3.5-7.8 7.8s3.5 7.8 7.8 7.8 7.8-3.5 7.8-7.8-3.5-7.8-7.8-7.8zM153.2 31c5.9 0 9.9 4.8 9.9 10.5v1.3h-17.5c.6 3.7 3.8 6.5 7.9 6.5 2.3 0 4.8-1.2 6.3-3.4l2.2 1.5c-1.9 2.8-5.1 4.6-8.7 4.6-5.7 0-10.5-4.6-10.5-10.5S147.6 31 153.2 31zm.1 2.6c-4.1 0-7.2 3.1-7.7 6.5h14.8c-.7-3.6-3.2-6.5-7.1-6.5zM86.2 31c5.8 0 10.5 4.7 10.5 10.5S92 51.9 86.2 51.9s-10.5-4.7-10.5-10.5S80.5 31 86.2 31zm0 2.6c-4.3 0-7.8 3.5-7.8 7.8s3.5 7.8 7.8 7.8 7.8-3.5 7.8-7.8c.1-4.3-3.4-7.8-7.8-7.8zm55.2 0c-2.9 0-5.9 2.3-5.9 5.9v11.8h-2.6V39.5c0-4.3 3.4-8.6 8.6-8.6h.8v2.6h-.9v.1zm-10.7-8.3c-2.9 0-5.9 2.3-5.9 5.9v.3h6.7V34h-6.7v17.4h-2.6V31.2c0-4.3 3.4-8.6 8.6-8.6h.8v2.6h-.9v.1zM108.5 31c4.5 0 8.6 3.8 8.6 8.2v12.2h-2.6v-12c0-2.1-1.9-5.7-5.9-5.7-2.9 0-5.9 2.3-5.9 5.9v11.8H100V39.5c0-4.3 3.4-8.5 8.5-8.5zm67.7 2.6c-4.1 0-7.2 3.1-7.7 6.5h14.8c-.6-3.6-3.1-6.5-7.1-6.5z" fill="#fff"/><linearGradient id="a" gradientUnits="userSpaceOnUse" x1="35.409" y1="80.505" x2="35.409" y2="22.249"><stop offset="0" stop-color="#4169e6"/><stop offset="1" stop-color="#3cc8f5"/></linearGradient><path d="M1.3 40.8c6.8 9.9 17.4 15.1 28.4 15.1 15.2 0 27.6-9.8 32.2-22.4 1.7-4.8 3.9-7.7 7.5-10.4-2.5-2.5-7.7-5.8-14.1-5.7-6.2.1-12.1 2.5-18.1 9.8C26.7 39.9 11.4 42.5 1.3 40.8zm55.6-19.2c.9 0 1.7.7 1.8 1.7 0 .9-.7 1.7-1.7 1.8-.9 0-1.7-.7-1.8-1.7 0-1 .7-1.8 1.7-1.8z" fill-rule="evenodd" clip-rule="evenodd" fill="url(#a)"/><linearGradient id="b" gradientUnits="userSpaceOnUse" x1="-39.617" y1="-2.121" x2="54.344" y2="39.713"><stop offset="0" stop-color="#504be1"/><stop offset="1" stop-color="#a0b4f0"/></linearGradient><path d="M19.3.4c-.3 1.7-.4 3.4-.4 5.2 0 17.2 14 31.2 31.2 31.2 4.1 0 7.9-.8 11.5-2.2-4.2 10.3-14.4 17.6-26.3 17.6-15.7 0-28.4-12.7-28.4-28.4 0-9.7 4.9-18.3 12.4-23.4z" fill-rule="evenodd" clip-rule="evenodd" fill="url(#b)"/><linearGradient id="c" gradientUnits="userSpaceOnUse" x1="6.211" y1="-31.241" x2="35.646" y2="19.743"><stop offset="0" stop-color="#504be1"/><stop offset="1" stop-color="#a0b4f0"/></linearGradient><path d="M61.5 34.6C58.5 41.8 51.4 45 44.1 45c-9.3 0-19.9-8.9-19.9-19.9 0-9.3 6.4-17.2 15.1-19.3-1 2.4-1.5 5.1-1.5 7.8 0 11.7 9.4 21.1 21.1 21.1.9.1 1.8 0 2.6-.1z" fill-rule="evenodd" clip-rule="evenodd" fill="url(#c)"/><linearGradient id="d" gradientUnits="userSpaceOnUse" x1="1.876" y1="10.641" x2="52.065" y2="40.798"><stop offset="0" stop-color="#504be1"/><stop offset="1" stop-color="#a0b4f0"/></linearGradient><path d="M61.5 34.6C58.5 41.8 51.4 45 44.1 45c-9.3 0-19.9-8.9-19.9-19.9 0-.7 0-1.3.1-1.9 5.6 8.2 15.1 13.6 25.8 13.6 4 0 7.9-.8 11.4-2.2z" fill-rule="evenodd" clip-rule="evenodd" fill="url(#d)"/><path d="M61.5 34.6c-.8.1-1.7.1-2.6.1-8 0-14.9-4.4-18.5-11-1 1-2.1 2.1-3.1 3.3-3 3.6-6.3 6.3-9.7 8.4C31.4 41.2 38 45 44.1 45c7.3 0 14.4-3.2 17.4-10.4z" fill-rule="evenodd" clip-rule="evenodd" fill="#0f91d7"/><linearGradient id="e" gradientUnits="userSpaceOnUse" x1="29.808" y1="83.451" x2="38.756" y2="26.96"><stop offset="0" stop-color="#5a6eb4"/><stop offset="1" stop-color="#36c6f6"/></linearGradient><path d="M32.9 31.7c-6.3 5.5-13.6 8.3-20.4 9.2 5.2 6.9 13.4 11.3 22.7 11.3 11.9 0 22-7.3 26.3-17.6-3.6 1.4-7.4 2.2-11.5 2.2-6.3 0-12.2-1.9-17.1-5.1z" fill-rule="evenodd" clip-rule="evenodd" fill="url(#e)"/><linearGradient id="f" gradientUnits="userSpaceOnUse" x1="21.834" y1="22.144" x2="55.646" y2="57.157"><stop offset="0" stop-color="#504be1"/><stop offset="1" stop-color="#a0b4f0"/></linearGradient><path d="M61.5 34.6C58 36 54.1 36.8 50 36.8c-6.3 0-12.2-1.9-17.1-5.1-6.3 5.5-13.6 8.3-20.3 9.2 5.2 6.9 13.4 11.3 22.7 11.3 11.8 0 22-7.3 26.2-17.6z" fill-rule="evenodd" clip-rule="evenodd" fill="url(#f)"/><linearGradient id="g" gradientUnits="userSpaceOnUse" x1="44.542" y1="18.871" x2="44.542" y2="91.622"><stop offset="0" stop-color="#504be1"/><stop offset="1" stop-color="#a0b4f0"/></linearGradient><path d="M61.5 34.6C58 36 54.1 36.8 50 36.8c-6.3 0-12.2-1.9-17.1-5.1-1.7 1.5-3.5 2.8-5.4 3.9C31.4 41.2 38 45 44.1 45c7.3 0 14.4-3.2 17.4-10.4z" fill-rule="evenodd" clip-rule="evenodd" fill="url(#g)"/></svg>