<?xml version="1.0" encoding="utf-8"?>
<!-- Generator: Adobe Illustrator 22.0.1, SVG Export Plug-In . SVG Version: 6.00 Build 0)  -->
<svg version="1.1" xmlns="http://www.w3.org/2000/svg" xmlns:xlink="http://www.w3.org/1999/xlink" x="0px" y="0px"
	 viewBox="0 0 283 57" style="enable-background:new 0 0 283 57;" xml:space="preserve">
<style type="text/css">
	.st0{fill:none;}
	.st1{fill:#FFFFFF;}
	.st2{fill-rule:evenodd;clip-rule:evenodd;fill:url(#SVGID_1_);}
	.st3{fill-rule:evenodd;clip-rule:evenodd;fill:url(#SVGID_2_);}
	.st4{fill-rule:evenodd;clip-rule:evenodd;fill:url(#SVGID_3_);}
	.st5{fill-rule:evenodd;clip-rule:evenodd;fill:url(#SVGID_4_);}
	.st6{fill-rule:evenodd;clip-rule:evenodd;fill:#0F91D7;}
	.st7{fill-rule:evenodd;clip-rule:evenodd;fill:url(#SVGID_5_);}
	.st8{fill-rule:evenodd;clip-rule:evenodd;fill:url(#SVGID_6_);}
	.st9{fill-rule:evenodd;clip-rule:evenodd;fill:url(#SVGID_7_);}
</style>
<g id="Направляющие_для_монтажной_области">
</g>
<g id="_x31_">
	<rect x="-0.2" y="0.2" class="st0" width="283.5" height="56.7"/>
	<path class="st1" d="M176.2,31c5.9,0,9.9,4.8,9.9,10.5v1.3h-17.5c0.6,3.7,3.8,6.5,7.9,6.5c2.3,0,4.8-1.2,6.3-3.4l2.2,1.5
		c-1.9,2.8-5.1,4.6-8.7,4.6c-5.7,0-10.5-4.6-10.5-10.5C165.8,35.6,170.6,31,176.2,31L176.2,31z M273.3,31c5.9,0,9.9,4.8,9.9,10.5
		v1.3h-17.5c0.6,3.7,3.8,6.5,7.9,6.5c2.3,0,4.8-1.2,6.3-3.4l2.2,1.5c-1.9,2.8-5.1,4.6-8.7,4.6c-5.7,0-10.5-4.6-10.5-10.5
		C262.9,35.6,267.7,31,273.3,31L273.3,31z M273.3,33.6c-4.1,0-7.2,3.1-7.7,6.5h14.8C279.8,36.5,277.3,33.6,273.3,33.6L273.3,33.6z
		 M206.3,31c5.8,0,10.5,4.7,10.5,10.5h0v0v9.9h-2.6v-3c-1.9,2.2-4.7,3.5-7.8,3.5c-5.8,0-10.5-4.7-10.5-10.5S200.5,31,206.3,31
		L206.3,31z M252.6,31c3.8,0,7.1,2,9,5.1l-2.3,1.3c-1.4-2.3-3.9-3.8-6.7-3.8c-4.3,0-7.8,3.5-7.8,7.8c0,4.3,3.5,7.8,7.8,7.8
		c2.8,0,5.3-1.5,6.7-3.8l2.3,1.3c-1.8,3-5.2,5.1-9,5.1c-5.8,0-10.5-4.7-10.5-10.5S246.8,31,252.6,31L252.6,31z M230.3,31
		c4.5,0,8.6,3.8,8.6,8.2v12.2h-2.6v-12c0-2.1-1.9-5.7-5.9-5.7c-2.9,0-5.9,2.3-5.9,5.9v11.8h-2.6V39.5C221.8,35.2,225.1,31,230.3,31
		L230.3,31z M189.6,51.4V22.3h2.6v29.1H189.6L189.6,51.4z M206.3,33.6c-4.3,0-7.8,3.5-7.8,7.8c0,4.3,3.5,7.8,7.8,7.8
		c4.3,0,7.8-3.5,7.8-7.8C214.1,37.1,210.6,33.6,206.3,33.6L206.3,33.6z M153.2,31c5.9,0,9.9,4.8,9.9,10.5v1.3h-17.5
		c0.6,3.7,3.8,6.5,7.9,6.5c2.3,0,4.8-1.2,6.3-3.4l2.2,1.5c-1.9,2.8-5.1,4.6-8.7,4.6c-5.7,0-10.5-4.6-10.5-10.5
		C142.8,35.6,147.6,31,153.2,31L153.2,31z M153.3,33.6c-4.1,0-7.2,3.1-7.7,6.5h14.8C159.7,36.5,157.2,33.6,153.3,33.6L153.3,33.6z
		 M86.2,31c5.8,0,10.5,4.7,10.5,10.5S92,51.9,86.2,51.9c-5.8,0-10.5-4.7-10.5-10.5S80.5,31,86.2,31L86.2,31z M86.2,33.6
		c-4.3,0-7.8,3.5-7.8,7.8c0,4.3,3.5,7.8,7.8,7.8c4.3,0,7.8-3.5,7.8-7.8C94.1,37.1,90.6,33.6,86.2,33.6L86.2,33.6z M141.4,33.6
		c-2.9,0-5.9,2.3-5.9,5.9v11.8h-2.6V39.5c0-4.3,3.4-8.6,8.6-8.6h0.8v2.6H141.4L141.4,33.6z M130.7,25.3c-2.9,0-5.9,2.3-5.9,5.9v0.3
		h6.7V34h-6.7v17.4h-2.6c0-6.7,0-13.5,0-20.2c0-4.3,3.4-8.6,8.6-8.6h0.8v2.6H130.7L130.7,25.3z M108.5,31c4.5,0,8.6,3.8,8.6,8.2
		v12.2h-2.6v-12c0-2.1-1.9-5.7-5.9-5.7c-2.9,0-5.9,2.3-5.9,5.9v11.8H100V39.5C100,35.2,103.4,31,108.5,31L108.5,31z M176.2,33.6
		c-4.1,0-7.2,3.1-7.7,6.5h14.8C182.7,36.5,180.2,33.6,176.2,33.6z"/>
	<linearGradient id="SVGID_1_" gradientUnits="userSpaceOnUse" x1="35.4092" y1="80.5052" x2="35.4092" y2="22.2488">
		<stop  offset="0" style="stop-color:#4169E6"/>
		<stop  offset="1" style="stop-color:#3CC8F5"/>
	</linearGradient>
	<path class="st2" d="M1.3,40.8c6.8,9.9,17.4,15.1,28.4,15.1c15.2,0,27.6-9.8,32.2-22.4c1.7-4.8,3.9-7.7,7.5-10.4
		c-2.5-2.5-7.7-5.8-14.1-5.7c-6.2,0.1-12.1,2.5-18.1,9.8C26.7,39.9,11.4,42.5,1.3,40.8L1.3,40.8z M56.9,21.6c0.9,0,1.7,0.7,1.8,1.7
		c0,0.9-0.7,1.7-1.7,1.8c-0.9,0-1.7-0.7-1.8-1.7C55.2,22.4,55.9,21.6,56.9,21.6z"/>
	<linearGradient id="SVGID_2_" gradientUnits="userSpaceOnUse" x1="-39.6166" y1="-2.1209" x2="54.3445" y2="39.7133">
		<stop  offset="0" style="stop-color:#504BE1"/>
		<stop  offset="1" style="stop-color:#A0B4F0"/>
	</linearGradient>
	<path class="st3" d="M19.3,0.4L19.3,0.4L19.3,0.4c-0.3,1.7-0.4,3.4-0.4,5.2c0,17.2,14,31.2,31.2,31.2c4.1,0,7.9-0.8,11.5-2.2
		c-4.2,10.3-14.4,17.6-26.3,17.6c-15.7,0-28.4-12.7-28.4-28.4C6.9,14.1,11.8,5.5,19.3,0.4z"/>
	<linearGradient id="SVGID_3_" gradientUnits="userSpaceOnUse" x1="6.2106" y1="-31.241" x2="35.6462" y2="19.7428">
		<stop  offset="0" style="stop-color:#504BE1"/>
		<stop  offset="1" style="stop-color:#A0B4F0"/>
	</linearGradient>
	<path class="st4" d="M61.5,34.6C58.5,41.8,51.4,45,44.1,45c-9.3,0-19.9-8.9-19.9-19.9c0-9.3,6.4-17.2,15.1-19.3
		c-1,2.4-1.5,5.1-1.5,7.8c0,11.7,9.4,21.1,21.1,21.1C59.8,34.8,60.7,34.7,61.5,34.6z"/>
	<linearGradient id="SVGID_4_" gradientUnits="userSpaceOnUse" x1="1.8757" y1="10.6411" x2="52.0653" y2="40.798">
		<stop  offset="0" style="stop-color:#504BE1"/>
		<stop  offset="1" style="stop-color:#A0B4F0"/>
	</linearGradient>
	<path class="st5" d="M61.5,34.6C58.5,41.8,51.4,45,44.1,45c-9.3,0-19.9-8.9-19.9-19.9c0-0.7,0-1.3,0.1-1.9
		c5.6,8.2,15.1,13.6,25.8,13.6C54.1,36.8,58,36,61.5,34.6L61.5,34.6z"/>
	<path class="st6" d="M61.5,34.6L61.5,34.6c-0.8,0.1-1.7,0.1-2.6,0.1c-8,0-14.9-4.4-18.5-11c-1,1-2.1,2.1-3.1,3.3
		c-3,3.6-6.3,6.3-9.7,8.4C31.4,41.2,38,45,44.1,45C51.4,45,58.5,41.8,61.5,34.6z"/>
	<linearGradient id="SVGID_5_" gradientUnits="userSpaceOnUse" x1="29.8084" y1="83.4505" x2="38.7556" y2="26.9597">
		<stop  offset="0" style="stop-color:#5A6EB4"/>
		<stop  offset="1" style="stop-color:#36C6F6"/>
	</linearGradient>
	<path class="st7" d="M32.9,31.7c-6.3,5.5-13.6,8.3-20.4,9.2c5.2,6.9,13.4,11.3,22.7,11.3c11.9,0,22-7.3,26.3-17.6
		c-3.6,1.4-7.4,2.2-11.5,2.2C43.7,36.8,37.8,34.9,32.9,31.7z"/>
	<linearGradient id="SVGID_6_" gradientUnits="userSpaceOnUse" x1="21.8345" y1="22.1442" x2="55.6456" y2="57.1567">
		<stop  offset="0" style="stop-color:#504BE1"/>
		<stop  offset="1" style="stop-color:#A0B4F0"/>
	</linearGradient>
	<path class="st8" d="M61.5,34.6L61.5,34.6c-3.5,1.4-7.4,2.2-11.5,2.2c-6.3,0-12.2-1.9-17.1-5.1c-6.3,5.5-13.6,8.3-20.3,9.2
		c5.2,6.9,13.4,11.3,22.7,11.3C47.1,52.2,57.3,44.9,61.5,34.6z"/>
	<linearGradient id="SVGID_7_" gradientUnits="userSpaceOnUse" x1="44.5423" y1="18.8708" x2="44.5423" y2="91.6218">
		<stop  offset="0" style="stop-color:#504BE1"/>
		<stop  offset="1" style="stop-color:#A0B4F0"/>
	</linearGradient>
	<path class="st9" d="M61.5,34.6L61.5,34.6c-3.5,1.4-7.4,2.2-11.5,2.2c-6.3,0-12.2-1.9-17.1-5.1c-1.7,1.5-3.5,2.8-5.4,3.9
		C31.4,41.2,38,45,44.1,45C51.4,45,58.5,41.8,61.5,34.6z"/>
</g>
</svg>
